<svg width="217" height="60" viewBox="0 0 217 60" fill="none" xmlns="http://www.w3.org/2000/svg">
<path d="M23.9822 7.00195C16.8142 7.00195 10.9822 15.2943 10.9822 25.4883C10.9822 30.583 12.4672 35.1565 14.824 38.4941C14.2608 39.2277 13.9822 40.1167 13.9822 41.002C13.9822 41.9742 14.3008 42.9598 14.9841 43.7285C15.6674 44.4972 16.7322 45.002 17.9822 45.002C19.2322 45.002 20.2969 44.4972 20.9802 43.7285C21.6635 42.9598 21.9822 41.9742 21.9822 41.002C21.9822 40.0297 21.6635 39.0441 20.9802 38.2754C20.2969 37.5067 19.2322 37.002 17.9822 37.002C17.4001 37.002 16.8645 37.1199 16.3826 37.3145C14.2999 34.3197 12.9822 30.146 12.9822 25.4883C12.9822 16.3973 17.9172 9.00195 23.9822 9.00195C29.4012 9.00195 33.9054 14.9113 34.8064 22.6523C35.5134 22.9213 36.2149 23.2246 36.9099 23.5586C36.2289 14.2686 30.6922 7.00195 23.9822 7.00195ZM21.9822 20.002C20.7322 20.002 19.6674 20.5067 18.9841 21.2754C18.3008 22.0441 17.9822 23.0297 17.9822 24.002C17.9822 24.9742 18.3008 25.9598 18.9841 26.7285C19.6674 27.4972 20.7322 28.002 21.9822 28.002C23.2322 28.002 24.2969 27.4972 24.9802 26.7285C25.4073 26.2481 25.6764 25.6796 25.8298 25.0859C29.4074 24.9321 33.4281 25.9891 37.1247 28.2051C45.0187 32.9371 48.995 41.1887 45.988 46.5977C44.914 48.5287 43.0391 49.8995 40.5681 50.5605C37.1061 51.4885 32.8537 50.918 28.7947 49.082C28.2087 49.553 27.5889 49.9987 26.9509 50.4297C30.2759 52.1087 33.7947 52.998 37.0447 52.998C38.4557 52.998 39.8157 52.8322 41.0857 52.4922C44.0927 51.6872 46.3931 49.9844 47.7361 47.5684C51.2601 41.2264 46.9611 31.7712 38.1521 26.4902C34.176 24.1052 29.8077 22.9385 25.8689 23.0664C25.7263 22.4183 25.443 21.796 24.9802 21.2754C24.2969 20.5067 23.2322 20.002 21.9822 20.002ZM21.9822 22.002C22.7322 22.002 23.1674 22.2472 23.4841 22.6035C23.8008 22.9598 23.9822 23.4742 23.9822 24.002C23.9822 24.5297 23.8008 25.0441 23.4841 25.4004C23.1674 25.7567 22.7322 26.002 21.9822 26.002C21.2322 26.002 20.7969 25.7567 20.4802 25.4004C20.1635 25.0441 19.9822 24.5297 19.9822 24.002C19.9822 23.4742 20.1635 22.9598 20.4802 22.6035C20.7969 22.2472 21.2322 22.002 21.9822 22.002ZM9.14427 28.334C2.18027 33.774 -0.915792 41.9084 2.23021 47.5684C3.57321 49.9844 5.8736 51.6852 8.8806 52.4902C10.1516 52.8302 11.5106 52.998 12.9216 52.998C16.7216 52.998 20.8932 51.7897 24.6892 49.5137C29.2449 46.7824 32.5258 42.9351 34.1951 38.9805C35.3499 38.9251 36.3373 38.4518 36.9802 37.7285C37.6635 36.9598 37.9822 35.9742 37.9822 35.002C37.9822 34.0297 37.6635 33.0441 36.9802 32.2754C36.2969 31.5067 35.2322 31.002 33.9822 31.002C32.7322 31.002 31.6674 31.5067 30.9841 32.2754C30.3008 33.0441 29.9822 34.0297 29.9822 35.002C29.9822 35.9742 30.3008 36.9598 30.9841 37.7285C31.3162 38.1021 31.7424 38.4096 32.2322 38.6309C30.6637 42.0396 27.6974 45.3785 23.6599 47.7988C18.9099 50.6478 13.5782 51.6805 9.39622 50.5605C6.92422 49.8985 5.05125 48.5287 3.97825 46.5977C1.43625 42.0247 3.89711 35.4297 9.48411 30.6367C9.33911 29.8857 9.22627 29.116 9.14427 28.334ZM33.9822 33.002C34.7322 33.002 35.1674 33.2472 35.4841 33.6035C35.8008 33.9598 35.9822 34.4742 35.9822 35.002C35.9822 35.5297 35.8008 36.0441 35.4841 36.4004C35.1674 36.7567 34.7322 37.002 33.9822 37.002C33.2322 37.002 32.7969 36.7567 32.4802 36.4004C32.1635 36.0441 31.9822 35.5297 31.9822 35.002C31.9822 34.4742 32.1635 33.9598 32.4802 33.6035C32.7969 33.2472 33.2322 33.002 33.9822 33.002ZM17.9822 39.002C18.7322 39.002 19.1674 39.2472 19.4841 39.6035C19.8008 39.9598 19.9822 40.4742 19.9822 41.002C19.9822 41.5297 19.8008 42.0441 19.4841 42.4004C19.1674 42.7567 18.7322 43.002 17.9822 43.002C17.2322 43.002 16.7969 42.7567 16.4802 42.4004C16.1635 42.0441 15.9822 41.5297 15.9822 41.002C15.9822 40.4742 16.1635 39.9598 16.4802 39.6035C16.7969 39.2472 17.2322 39.002 17.9822 39.002Z" fill="white" stroke="white" stroke-width="2"/>
<path d="M73.6475 43.86C71.7542 43.86 70.0875 43.62 68.6475 43.14C67.2075 42.6333 65.9942 41.8867 65.0075 40.9C64.0475 39.9133 63.3142 38.6867 62.8075 37.22C62.3009 35.7533 62.0475 34.06 62.0475 32.14V17.1C62.0475 16.4067 62.2209 15.8867 62.5675 15.54C62.9409 15.1933 63.4609 15.02 64.1275 15.02C64.7942 15.02 65.3009 15.1933 65.6475 15.54C66.0209 15.8867 66.2075 16.4067 66.2075 17.1V32.06C66.2075 34.8067 66.8342 36.86 68.0875 38.22C69.3675 39.58 71.2209 40.26 73.6475 40.26C76.1009 40.26 77.9542 39.58 79.2075 38.22C80.4609 36.86 81.0875 34.8067 81.0875 32.06V17.1C81.0875 16.4067 81.2609 15.8867 81.6075 15.54C81.9809 15.1933 82.4875 15.02 83.1275 15.02C83.7942 15.02 84.3009 15.1933 84.6475 15.54C84.9942 15.8867 85.1675 16.4067 85.1675 17.1V32.14C85.1675 34.7 84.7275 36.86 83.8475 38.62C82.9942 40.3533 81.7142 41.66 80.0075 42.54C78.3009 43.42 76.1809 43.86 73.6475 43.86ZM93.1835 43.78C92.5168 43.78 92.0101 43.6067 91.6635 43.26C91.3168 42.8867 91.1435 42.38 91.1435 41.74V25.74C91.1435 25.0733 91.3168 24.5667 91.6635 24.22C92.0101 23.8733 92.4901 23.7 93.1035 23.7C93.7435 23.7 94.2235 23.8733 94.5435 24.22C94.8901 24.5667 95.0635 25.0733 95.0635 25.74V28.66H94.6635C95.0901 27.06 95.8768 25.8467 97.0235 25.02C98.1701 24.1933 99.6368 23.7133 101.423 23.58C101.903 23.5533 102.277 23.6733 102.543 23.94C102.837 24.2067 102.997 24.62 103.023 25.18C103.077 25.74 102.957 26.1933 102.663 26.54C102.37 26.86 101.917 27.0467 101.303 27.1L100.543 27.18C98.8101 27.34 97.4901 27.8867 96.5835 28.82C95.6768 29.7533 95.2235 31.0333 95.2235 32.66V41.74C95.2235 42.38 95.0501 42.8867 94.7035 43.26C94.3835 43.6067 93.8768 43.78 93.1835 43.78ZM116.545 43.86C114.839 43.86 113.359 43.4333 112.105 42.58C110.852 41.7 110.012 40.54 109.585 39.1L110.025 38.38V41.74C110.025 42.38 109.852 42.8867 109.505 43.26C109.159 43.6067 108.679 43.78 108.065 43.78C107.425 43.78 106.932 43.6067 106.585 43.26C106.239 42.8867 106.065 42.38 106.065 41.74V17.06C106.065 16.3933 106.239 15.8867 106.585 15.54C106.932 15.1933 107.425 15.02 108.065 15.02C108.705 15.02 109.199 15.1933 109.545 15.54C109.919 15.8867 110.105 16.3933 110.105 17.06V28.26H109.625C110.052 26.8467 110.892 25.7267 112.145 24.9C113.399 24.0467 114.865 23.62 116.545 23.62C118.305 23.62 119.825 24.0333 121.105 24.86C122.385 25.6867 123.372 26.8467 124.065 28.34C124.785 29.8333 125.145 31.6333 125.145 33.74C125.145 35.7933 124.785 37.5933 124.065 39.14C123.372 40.66 122.372 41.8333 121.065 42.66C119.785 43.46 118.279 43.86 116.545 43.86ZM115.545 40.74C116.665 40.74 117.639 40.4733 118.465 39.94C119.292 39.4067 119.932 38.62 120.385 37.58C120.839 36.54 121.065 35.26 121.065 33.74C121.065 31.4467 120.559 29.7133 119.545 28.54C118.559 27.3667 117.225 26.78 115.545 26.78C114.452 26.78 113.479 27.0467 112.625 27.58C111.799 28.0867 111.159 28.86 110.705 29.9C110.252 30.94 110.025 32.22 110.025 33.74C110.025 36.0067 110.532 37.74 111.545 38.94C112.559 40.14 113.892 40.74 115.545 40.74ZM135.938 43.86C134.578 43.86 133.351 43.5933 132.258 43.06C131.191 42.5267 130.351 41.8067 129.738 40.9C129.125 39.9933 128.818 38.9667 128.818 37.82C128.818 36.38 129.178 35.2467 129.898 34.42C130.645 33.5667 131.858 32.9667 133.538 32.62C135.245 32.2467 137.538 32.06 140.418 32.06H142.298V34.54H140.458C138.538 34.54 137.018 34.6333 135.898 34.82C134.778 35.0067 133.978 35.3267 133.498 35.78C133.045 36.2067 132.818 36.8067 132.818 37.58C132.818 38.5933 133.165 39.42 133.858 40.06C134.551 40.6733 135.511 40.98 136.738 40.98C137.725 40.98 138.591 40.7533 139.338 40.3C140.085 39.82 140.671 39.18 141.098 38.38C141.551 37.58 141.778 36.66 141.778 35.62V31.02C141.778 29.5 141.458 28.4067 140.818 27.74C140.178 27.0733 139.125 26.74 137.658 26.74C136.805 26.74 135.911 26.8467 134.978 27.06C134.071 27.2733 133.125 27.6333 132.138 28.14C131.685 28.3533 131.298 28.42 130.978 28.34C130.658 28.26 130.405 28.0867 130.218 27.82C130.031 27.5267 129.925 27.22 129.898 26.9C129.898 26.5533 129.978 26.22 130.138 25.9C130.325 25.58 130.631 25.34 131.058 25.18C132.231 24.62 133.391 24.22 134.538 23.98C135.685 23.74 136.765 23.62 137.778 23.62C139.565 23.62 141.031 23.9 142.178 24.46C143.351 25.02 144.218 25.8733 144.778 27.02C145.338 28.1667 145.618 29.6467 145.618 31.46V41.74C145.618 42.38 145.458 42.8867 145.138 43.26C144.818 43.6067 144.351 43.78 143.738 43.78C143.151 43.78 142.685 43.6067 142.338 43.26C141.991 42.8867 141.818 42.38 141.818 41.74V39.14H142.178C141.965 40.1267 141.565 40.98 140.978 41.7C140.418 42.3933 139.711 42.9267 138.858 43.3C138.005 43.6733 137.031 43.86 135.938 43.86ZM153.183 43.78C152.543 43.78 152.049 43.6067 151.703 43.26C151.356 42.8867 151.183 42.38 151.183 41.74V25.74C151.183 25.0733 151.356 24.5667 151.703 24.22C152.049 23.8733 152.529 23.7 153.143 23.7C153.783 23.7 154.263 23.8733 154.583 24.22C154.929 24.5667 155.103 25.0733 155.103 25.74V28.86L154.663 28.14C155.249 26.6467 156.169 25.5267 157.423 24.78C158.676 24.0067 160.116 23.62 161.743 23.62C163.289 23.62 164.569 23.9133 165.583 24.5C166.623 25.06 167.396 25.9267 167.903 27.1C168.409 28.2467 168.663 29.7 168.663 31.46V41.74C168.663 42.38 168.489 42.8867 168.143 43.26C167.796 43.6067 167.303 43.78 166.663 43.78C165.996 43.78 165.489 43.6067 165.143 43.26C164.796 42.8867 164.623 42.38 164.623 41.74V31.7C164.623 30.02 164.289 28.7933 163.623 28.02C162.983 27.2467 161.969 26.86 160.583 26.86C158.956 26.86 157.649 27.3667 156.663 28.38C155.703 29.3933 155.223 30.7533 155.223 32.46V41.74C155.223 43.1 154.543 43.78 153.183 43.78ZM176.229 43.74C175.589 43.74 175.096 43.5533 174.749 43.18C174.403 42.78 174.229 42.2333 174.229 41.54V25.94C174.229 25.2467 174.403 24.7133 174.749 24.34C175.096 23.9667 175.589 23.78 176.229 23.78C176.869 23.78 177.363 23.9667 177.709 24.34C178.083 24.7133 178.269 25.2467 178.269 25.94V41.54C178.269 42.2333 178.096 42.78 177.749 43.18C177.403 43.5533 176.896 43.74 176.229 43.74ZM176.229 19.62C175.429 19.62 174.803 19.42 174.349 19.02C173.923 18.62 173.709 18.06 173.709 17.34C173.709 16.5933 173.923 16.0333 174.349 15.66C174.803 15.26 175.429 15.06 176.229 15.06C177.029 15.06 177.643 15.26 178.069 15.66C178.523 16.0333 178.749 16.5933 178.749 17.34C178.749 18.06 178.523 18.62 178.069 19.02C177.643 19.42 177.029 19.62 176.229 19.62ZM192.276 43.86C190.676 43.86 189.329 43.58 188.236 43.02C187.143 42.46 186.329 41.6333 185.796 40.54C185.263 39.4467 184.996 38.1133 184.996 36.54V27.1H182.596C182.063 27.1 181.649 26.9667 181.356 26.7C181.063 26.4067 180.916 26.02 180.916 25.54C180.916 25.0333 181.063 24.6467 181.356 24.38C181.649 24.1133 182.063 23.98 182.596 23.98H184.996V19.86C184.996 19.1933 185.169 18.6867 185.516 18.34C185.889 17.9933 186.396 17.82 187.036 17.82C187.676 17.82 188.169 17.9933 188.516 18.34C188.863 18.6867 189.036 19.1933 189.036 19.86V23.98H193.716C194.249 23.98 194.663 24.1133 194.956 24.38C195.249 24.6467 195.396 25.0333 195.396 25.54C195.396 26.02 195.249 26.4067 194.956 26.7C194.663 26.9667 194.249 27.1 193.716 27.1H189.036V36.22C189.036 37.6333 189.329 38.7 189.916 39.42C190.529 40.14 191.516 40.5 192.876 40.5C193.356 40.5 193.769 40.46 194.116 40.38C194.489 40.2733 194.796 40.2067 195.036 40.18C195.329 40.18 195.569 40.2867 195.756 40.5C195.943 40.6867 196.036 41.06 196.036 41.62C196.036 42.02 195.956 42.3933 195.796 42.74C195.663 43.0867 195.409 43.3133 195.036 43.42C194.716 43.5267 194.276 43.62 193.716 43.7C193.183 43.8067 192.703 43.86 192.276 43.86ZM203.439 50.98C202.959 50.98 202.559 50.8467 202.239 50.58C201.945 50.34 201.772 50.0067 201.719 49.58C201.692 49.18 201.772 48.74 201.959 48.26L204.679 42.14V43.86L197.199 26.46C197.012 25.98 196.945 25.5267 196.999 25.1C197.052 24.6733 197.252 24.34 197.599 24.1C197.945 23.8333 198.412 23.7 198.999 23.7C199.505 23.7 199.905 23.82 200.199 24.06C200.492 24.3 200.759 24.7133 200.999 25.3L207.039 40.22H205.919L212.039 25.3C212.279 24.6867 212.559 24.2733 212.879 24.06C213.199 23.82 213.639 23.7 214.199 23.7C214.679 23.7 215.052 23.8333 215.319 24.1C215.612 24.34 215.785 24.6733 215.839 25.1C215.919 25.5 215.852 25.94 215.639 26.42L205.639 49.42C205.372 50.0333 205.065 50.4467 204.719 50.66C204.399 50.8733 203.972 50.98 203.439 50.98Z" fill="white"/>
</svg>
