<svg width="20" height="25" viewBox="0 0 20 25" fill="none" xmlns="http://www.w3.org/2000/svg">
<path d="M17 11.5H3C1.89543 11.5 1 12.3954 1 13.5V20.5C1 21.6046 1.89543 22.5 3 22.5H17C18.1046 22.5 19 21.6046 19 20.5V13.5C19 12.3954 18.1046 11.5 17 11.5Z" stroke="#BABDC3" stroke-width="2" stroke-linecap="round" stroke-linejoin="round"/>
<path d="M5 11.5V7.5C5 6.17392 5.52678 4.90215 6.46447 3.96447C7.40215 3.02678 8.67392 2.5 10 2.5C11.3261 2.5 12.5979 3.02678 13.5355 3.96447C14.4732 4.90215 15 6.17392 15 7.5V11.5" stroke="#BABDC3" stroke-width="2" stroke-linecap="round" stroke-linejoin="round"/>
</svg>
